<svg xmlns="http://www.w3.org/2000/svg" width="1253" height="1080" fill="none" viewBox="0 0 1253 1080">
  <path fill="#fff" d="M0 0h1253v1080H0z"/>
  <g clip-path="url(#a)">
    <path fill="#9D2718" stroke="#1F1F1F" stroke-linecap="round" stroke-linejoin="round" stroke-width="4.5" d="m232.35 238.21-53.37 188.31c-4.01 14.15 6.64 28.21 21.34 28.14 70.81-.33 260.64-19.97 449.69-201.26 10.47-10.04 8.59-27.28-3.79-34.84l-157.07-95.9-256.82 115.55h.02Z"/>
    <path fill="#F1D8C3" stroke="#1F1F1F" stroke-linecap="round" stroke-linejoin="round" stroke-width="4.5" d="M294.92 307.279s-46.92-4.59-55.28-39.06 27.64-29.8 27.64-29.8l27.64 68.86ZM380.04 462.79 363.6 344.63l106.86-48.29 59.59 91.45-150.01 75ZM504.15 223.13s26.33-34.64 17.44-67.58c-7.76-28.77-39.96-10.96-39.96-10.96l22.52 78.54Z"/>
    <path fill="#C1E6FF" stroke="#1F1F1F" stroke-linecap="round" stroke-linejoin="round" stroke-width="4.5" d="M242.58 217.19S216.55 98.6898 319.29 54.8498c102.75-43.84 155.49 39.04 162.34 60.9602 0 0-169.19 27.4-239.05 101.38Z"/>
    <path fill="#F1D8C3" stroke="#1F1F1F" stroke-linecap="round" stroke-linejoin="round" stroke-width="4.5" d="M255.25 239.45s45.21 141.79 170.56 104.8c125.35-36.99 62.67-206.52 62.67-206.52s-125.35-8.22-233.23 101.72Z"/>
    <path fill="#C1E6FF" stroke="#1F1F1F" stroke-linecap="round" stroke-linejoin="round" stroke-width="4.5" d="M255.25 239.45c-18.49 19.18-38.02-8.22-10.27-34.93 27.74-26.71 110.39-97.51 247.62-101.72 25.12 1.33 21.03 34.79-4.11 34.93 0 0-125.69-6.51-233.23 101.72h-.01Z"/>
    <path stroke="#1F1F1F" stroke-linecap="round" stroke-linejoin="round" stroke-width="4.5" d="M301.94 229.059s35.19-36.08 58.69-27.86c23.5 8.22 26.24 89.5 26.24 89.5l21.92-9.59M391.56 187.349s23.09-21.46 53.1-18.72M426.83 299.32s18.72-5.921 26.94-22.591"/>
    <path fill="#1F1F1F" d="M350.306 257.356c2.406-1.101 3.135-4.66 1.63-7.949-1.505-3.289-4.676-5.064-7.081-3.963-2.406 1.101-3.135 4.66-1.63 7.949 1.505 3.29 4.675 5.064 7.081 3.963ZM426.563 224.704c2.406-1.101 3.136-4.66 1.63-7.949-1.505-3.29-4.675-5.064-7.081-3.963-2.405 1.101-3.135 4.66-1.63 7.949 1.506 3.29 4.676 5.064 7.081 3.963Z"/>
    <path fill="#C1E6FF" stroke="#C1E6FF" stroke-linecap="round" stroke-linejoin="round" stroke-width="4.5" d="m386.37 1038.67-21.74-218.92-240.81-67.36S196.23 552 295.58 484.64c99.35-67.36 410.89-205.44 410.89-205.44 122.93-57.25 301.43 195.34 301.43 195.34L851.29 631.15l33.68 407.52H386.36h.01Z"/>
    <path fill="#3C4043" stroke="#1F1F1F" stroke-linecap="round" stroke-linejoin="round" stroke-width="4.5" d="M123.82 752.4c6.74-54.73 179.15-3.371 231.35 26.099l17.02 72S116.69 810.28 123.82 752.4Z"/>
    <path fill="#F1D8C3" stroke="#1F1F1F" stroke-linecap="round" stroke-linejoin="round" stroke-width="4.5" d="M994.98 487.47s291.35 551.2 89.83 551.2H884.98L851.3 631.15l143.68-143.68Z"/>
    <path stroke="#1F1F1F" stroke-linecap="round" stroke-linejoin="round" stroke-width="4.5" d="M213.19 574.4c24.07-36.01 51.97-69.12 82.4-89.75 99.35-67.36 319.95-164.16 319.95-164.16M1078.17 867.65l-70.26 17.23"/>
    <path fill="#fff" stroke="#1F1F1F" stroke-linecap="round" stroke-linejoin="round" stroke-width="4.5" d="M866.71 290.93H493.65c-53.17 0-96.26 43.1-96.26 96.26V942.4c0 53.17 43.1 96.26 96.26 96.26h418c53.17 0 96.26-43.1 96.26-96.26V432.12l-141.2-141.2v.01Z"/>
    <path fill="#78DA97" stroke="#1F1F1F" stroke-linecap="round" stroke-linejoin="round" stroke-width="4.5" d="M866.71 382.69c0 27.3 22.13 49.44 49.44 49.44h91.76l-141.2-141.2v91.76Z"/>
    <path fill="#F1D8C3" stroke="#1F1F1F" stroke-linecap="round" stroke-linejoin="round" stroke-width="4.5" d="M169.29 728.26s-123.72 310.42 9.87 310.42c73.16 0 114.86-47.95 143.45-91.39L440.3 768.45l97.78-11.84c33.62-2.88 34.96-24.42 17.68-24.42h-20.69c-10.36 0-18.75-8.4-18.75-18.75v-63.53c0-10.36 8.4-18.75 18.75-18.75h56.49c12.26 0 22.29-16 7.14-20.21-15.16-4.21-109.46-36.21-165.87 20.21-56.41 56.42-125.31 126.52-125.31 126.52s-62.45-26.62-138.23-29.42Z"/>
    <path fill="#fff" d="M594.97 804.9h-59.9c-11.36 0-20.57 9.21-20.57 20.57v59.9c0 11.361 9.21 20.57 20.57 20.57h59.9c11.36 0 20.57-9.209 20.57-20.57v-59.9c0-11.36-9.21-20.57-20.57-20.57Z"/>
    <path fill="#1F1F1F" d="M574.48 908.18c-1.24 0-2.25-1.01-2.25-2.25s1.01-2.25 2.25-2.25h20.49c1.24 0 2.29 1.01 2.29 2.25s-.96 2.25-2.21 2.25v-2.25l-.05 2.25h-20.53.01Zm-20.49 0h-18.92c-.58 0-1.16-.02-1.74-.07-1.24-.09-2.17-1.17-2.07-2.41.09-1.24 1.18-2.17 2.41-2.07.46.03.93.05 1.4.05h18.92c1.24 0 2.25 1.01 2.25 2.25s-1.01 2.25-2.25 2.25Zm58.29-9.45c-.42 0-.84-.12-1.22-.36-1.04-.67-1.35-2.06-.67-3.11 1.9-2.95 2.9-6.37 2.9-9.9v-8.74c0-1.24 1.01-2.25 2.25-2.25s2.25 1.01 2.25 2.25v8.74c0 4.39-1.25 8.66-3.62 12.34-.43.67-1.15 1.03-1.89 1.03Zm-95.27-1.27c-.8 0-1.57-.42-1.98-1.17-1.82-3.33-2.78-7.11-2.78-10.92v-10.22c0-1.24 1.01-2.25 2.25-2.25s2.25 1.01 2.25 2.25v10.22c0 3.06.77 6.1 2.23 8.77.6 1.09.19 2.46-.9 3.05-.34.19-.71.28-1.08.28l.01-.01Zm98.53-39.07c-1.24 0-2.25-1.01-2.25-2.25v-20.49c0-1.24 1.01-2.25 2.25-2.25s2.25 1.01 2.25 2.25v20.49c0 1.24-1.01 2.25-2.25 2.25ZM514.5 856.9c-1.24 0-2.25-1.01-2.25-2.25v-20.49c0-1.24 1.01-2.25 2.25-2.25s2.25 1.01 2.25 2.25v20.49c0 1.24-1.01 2.25-2.25 2.25Zm98.52-39.06c-.79 0-1.56-.42-1.97-1.17-3-5.48-8.5-9.02-14.71-9.47-1.24-.09-2.17-1.17-2.08-2.41.09-1.24 1.16-2.17 2.41-2.08 7.74.57 14.59 4.98 18.33 11.8.6 1.09.2 2.46-.89 3.06-.34.19-.71.28-1.08.28l-.01-.01Zm-95.23-1.28c-.42 0-.84-.12-1.22-.36-1.04-.67-1.34-2.07-.67-3.11 4.22-6.52 11.37-10.43 19.13-10.44 1.24 0 2.25 1 2.25 2.25 0 1.24-1 2.25-2.25 2.25-6.23.01-11.97 3.15-15.36 8.39-.43.67-1.15 1.03-1.89 1.03l.01-.01Zm58.22-9.41h-20.49c-1.24 0-2.25-1.01-2.25-2.25s1.01-2.25 2.25-2.25h20.49c1.24 0 2.25 1.01 2.25 2.25s-1.01 2.25-2.25 2.25Z"/>
    <path fill="#78DA97" stroke="#1F1F1F" stroke-linecap="round" stroke-linejoin="round" stroke-width="4.5" d="M594.97 631.23h-59.9c-11.36 0-20.57 9.21-20.57 20.57v59.901c0 11.36 9.21 20.57 20.57 20.57h59.9c11.36 0 20.57-9.21 20.57-20.57V651.8c0-11.36-9.21-20.57-20.57-20.57ZM891.35 516.25h-59.9c-11.36 0-20.57 9.21-20.57 20.57v348.54c0 11.36 9.21 20.57 20.57 20.57h59.9c11.36 0 20.57-9.21 20.57-20.57V536.82c0-11.36-9.21-20.57-20.57-20.57Z"/>
    <path fill="#F1D8C3" d="M482.88 624.79s60.62 20.21 48.46 56.88c-13.25 39.96-28.07 60.62-38.73 56.54-16-6.94-4.77-29.17-4.77-29.17l15.63-31.01-38.65-23.31"/>
    <path stroke="#1F1F1F" stroke-linecap="round" stroke-linejoin="round" stroke-width="4.5" d="M482.88 624.79s60.62 20.21 48.46 56.88c-13.25 39.96-28.07 60.62-38.73 56.54-16-6.94-4.77-29.17-4.77-29.17l15.63-31.01-38.65-23.31"/>
    <path fill="#F1D8C3" d="M456.36 632.85s66.75 23.54 54.59 60.22c-13.25 39.96-35.45 53.85-46.12 49.77-16-6.94-3.51-25.74-3.51-25.74l15.63-31.01-38.65-23.31"/>
    <path stroke="#1F1F1F" stroke-linecap="round" stroke-linejoin="round" stroke-width="4.5" d="M456.36 632.85s66.75 23.54 54.59 60.22c-13.25 39.96-35.45 53.85-46.12 49.77-16-6.94-3.51-25.74-3.51-25.74l15.63-31.01-38.65-23.31"/>
    <path fill="#F1D8C3" d="M437.7 654.71s73.57 27.51 48.46 56.88c-25.86 30.25-49.82 37.43-56.8 32.15-15.33-11.56 4.04-25.59 4.04-25.59l24.42-18.13-37.24-19.66"/>
    <path stroke="#1F1F1F" stroke-linecap="round" stroke-linejoin="round" stroke-width="4.5" d="M437.7 654.71s73.57 27.51 48.46 56.88c-25.86 30.25-49.82 37.43-56.8 32.15-15.33-11.56 4.04-25.59 4.04-25.59l24.42-18.13-37.24-19.66M307.52 757.67 167.61 906.48"/>
    <path fill="#78DA97" stroke="#1F1F1F" stroke-linecap="round" stroke-linejoin="round" stroke-width="4.5" d="M736.43 722.34h-59.9c-11.36 0-20.57 9.209-20.57 20.57v142.45c0 11.36 9.21 20.57 20.57 20.57h59.9c11.36 0 20.57-9.21 20.57-20.57V742.91c0-11.361-9.21-20.57-20.57-20.57Z"/>
    <path stroke="#1F1F1F" stroke-linecap="round" stroke-linejoin="round" stroke-width="4.5" d="M69.25 1038.67h1114.66"/>
  </g>
  <defs>
    <clipPath id="a">
      <path fill="#fff" d="M67 40h1119.16v1000.92H67z"/>
    </clipPath>
  </defs>
</svg>
